<?xml version="1.0" encoding="UTF-8"?>
<svg xmlns="http://www.w3.org/2000/svg" data-name="Layer 1" viewBox="0 0 100 100"><path fill="#03234b" fill-rule="evenodd" d="M88.27 39.27c-1.63-7.57-5.82-13.57-11.75-18.38-7.68-6.21-16.6-9.22-26.36-9.81a48 48 0 0 0-18.93 2.56c-8.36 2.93-15.39 7.67-20.42 15.09a28.52 28.52 0 0 0-4.73 21.71C7.42 57.94 11.35 64 17 68.93a43.58 43.58 0 0 0 19.38 9.55 50.58 50.58 0 0 0 15.71.94c.83-.07.75.19.52.77-1.3 3.29-2.57 6.58-3.85 9.87-.51 1.31-1 2.63-1.57 4.07a1.89 1.89 0 0 0 1-.6Q61.88 82.1 75.48 70.68a40.65 40.65 0 0 0 8.75-9.48 28.68 28.68 0 0 0 4.04-21.93zM49.74 23.38a4.83 4.83 0 1 1-4.85 4.76 4.92 4.92 0 0 1 4.85-4.76zm.14 43.74A8.45 8.45 0 0 1 40 59.06a17.83 17.83 0 0 1 .62-4.34q1-5.16 1.93-10.32a4.8 4.8 0 0 1 9.51.88 18.65 18.65 0 0 1-.69 3.72c-.51 2.39-1.06 4.77-1.55 7.16-.82 4 2 6.88 6 6.19a1.66 1.66 0 0 1 .32.06 8.47 8.47 0 0 1-6.26 4.71z" style="fill: #ffd200;"/></svg>
