<?xml version="1.0" encoding="UTF-8"?>
<svg xmlns="http://www.w3.org/2000/svg" viewBox="0 0 500 500"><path fill="#03234b" d="M172.076 156.399c0-43.008 34.865-77.874 77.874-77.874 43.008 0 77.874 34.865 77.874 77.874v90.704H172.076v-90.704zM159.755 264.47h180.391v45.344H159.755zM299.888 373.461h-6.868v103.48h-8.936v-103.48h-6.868v-46.527h22.672zM222.685 373.461h-6.869V495h-8.935V373.461h-6.869v-46.527h22.673zM150.365 163.992h-45.186a7.199 7.199 0 1 1 0-14.398h45.186a7.199 7.199 0 1 1 0 14.398zM179.481 93.7a7.174 7.174 0 0 1-5.09-2.109L142.44 59.64a7.2 7.2 0 0 1 10.181-10.181l31.951 31.951a7.198 7.198 0 0 1 0 10.181 7.176 7.176 0 0 1-5.091 2.109zM249.774 64.583a7.199 7.199 0 0 1-7.199-7.199V12.199a7.199 7.199 0 1 1 14.398 0v45.186a7.199 7.199 0 0 1-7.199 7.198zM320.066 93.7a7.2 7.2 0 0 1-5.091-12.29l31.951-31.951a7.2 7.2 0 0 1 10.181 10.181l-31.951 31.951a7.174 7.174 0 0 1-5.09 2.109zM394.821 164.444h-45.186a7.199 7.199 0 1 1 0-14.398h45.186a7.199 7.199 0 1 1 0 14.398z" style="fill: #3cb4e6;"/></svg>
